<?xml version="1.0" encoding="UTF-8" standalone="no"?>
<!-- Created with Inkscape (http://www.inkscape.org/) -->

<svg
   width="56mm"
   height="56mm"
   viewBox="0 0 56 55.999999"
   version="1.1"
   id="svg703"
   xml:space="preserve"
   inkscape:version="1.2 (dc2aedaf03, 2022-05-15)"
   sodipodi:docname="icon.svg"
   inkscape:export-filename="icon.png"
   inkscape:export-xdpi="96"
   inkscape:export-ydpi="96"
   xmlns:inkscape="http://www.inkscape.org/namespaces/inkscape"
   xmlns:sodipodi="http://sodipodi.sourceforge.net/DTD/sodipodi-0.dtd"
   xmlns="http://www.w3.org/2000/svg"
   xmlns:svg="http://www.w3.org/2000/svg"><sodipodi:namedview
     id="namedview705"
     pagecolor="#ffffff"
     bordercolor="#000000"
     borderopacity="0.25"
     inkscape:showpageshadow="2"
     inkscape:pageopacity="0.0"
     inkscape:pagecheckerboard="0"
     inkscape:deskcolor="#d1d1d1"
     inkscape:document-units="mm"
     showgrid="false"
     inkscape:zoom="2.7652077"
     inkscape:cx="86.250303"
     inkscape:cy="84.442121"
     inkscape:window-width="1920"
     inkscape:window-height="974"
     inkscape:window-x="-11"
     inkscape:window-y="-11"
     inkscape:window-maximized="1"
     inkscape:current-layer="layer1" /><defs
     id="defs700" /><g
     inkscape:label="Calque 1"
     inkscape:groupmode="layer"
     id="layer1"
     transform="translate(-3.4852167,-0.98311638)"><rect
       style="fill:#ffffff;stroke-width:2;fill-opacity:1"
       id="rect306"
       width="56.261597"
       height="56.261597"
       x="3.2938507"
       y="0.88743341" /><g
       id="g4317"
       transform="matrix(0.31573932,0,0,0.31573932,-1.093072,-13.839133)"><path
         style="fill:#2a00c1;fill-opacity:1;stroke:none;stroke-width:2;stroke-dasharray:none;stroke-opacity:1"
         d="m 75.696387,170.03639 20.107469,0.056 7.983654,28.68703 9.33682,-29.09298 h 15.69668 l -17.04984,50.33762 -18.267688,1.21785 z"
         id="path3704"
         sodipodi:nodetypes="cccccccc" /><path
         style="fill:#2a00c1;fill-opacity:1;stroke:none;stroke-width:2;stroke-dasharray:none;stroke-opacity:1"
         d="m 120.01038,149.45682 5.23865,-13.6109 4.76023,13.49131 z"
         id="path3614"
         sodipodi:nodetypes="cccc" /><path
         style="fill:#2a00c1;fill-opacity:1;stroke:none;stroke-width:2;stroke-dasharray:none;stroke-opacity:1"
         d="m 75.888571,149.74388 6.494481,-18.46682 6.063912,18.37114 z"
         id="path3595"
         sodipodi:nodetypes="cccc" /><path
         style="fill:none;fill-opacity:1;stroke:#2a00c1;stroke-width:2;stroke-dasharray:none;stroke-opacity:1"
         d="m 125.30278,133.15112 -6.49517,17.04984"
         id="path1779" /><path
         style="fill:none;fill-opacity:1;stroke:#2a00c1;stroke-width:2;stroke-dasharray:none;stroke-opacity:1"
         d="m 82.343297,128.58179 6.965383,21.75449"
         id="path1777"
         sodipodi:nodetypes="cc" /><path
         style="fill:none;fill-opacity:1;stroke:#2a00c1;stroke-width:2;stroke-dasharray:none;stroke-opacity:1"
         d="m 75.709403,168.94225 17.591103,52.36736 19.011924,-0.33828 17.65876,-51.89376"
         id="path1950" /><path
         style="fill:none;fill-opacity:1;stroke:#2a00c1;stroke-width:2;stroke-dasharray:none;stroke-opacity:1"
         d="m 95.533222,169.07757 8.254288,27.33386 9.13384,-27.46918"
         id="path1952" /><path
         style="fill:none;fill-opacity:1;stroke:#c1002a;stroke-width:2;stroke-dasharray:none;stroke-opacity:1"
         d="M 45.804527,163.59726 91.879688,50.33762 114.34218,50.269962 160.15631,164.08529"
         id="path1781"
         sodipodi:nodetypes="cccc" /><path
         style="fill:none;fill-opacity:1;stroke:#c1002a;stroke-width:2;stroke-dasharray:none;stroke-opacity:1"
         d="M 102.8403,70.229097 74.559215,150.74222 131.39201,150.33628 Z"
         id="path1775" /><path
         style="fill:none;fill-opacity:1;stroke:#c1002a;stroke-width:2;stroke-dasharray:none;stroke-opacity:1"
         d="m 46.092075,220.68378 2.43569,-1e-5 17.91248,-51.67386 73.341375,0.13532 18.05873,51.68328 2.27944,0.009"
         id="path1879"
         sodipodi:nodetypes="cccccc" /><path
         style="fill:none;fill-opacity:1;stroke:#2a00c1;stroke-width:2;stroke-dasharray:none;stroke-opacity:1"
         d="m 24.627545,220.56537 -0.135316,-170.227751 32.746516,1e-6 M 56.329757,49.69176 70.749138,97.446884 60.553991,122.46115 46.007502,78.212753 V 220.70069 l -22.380435,-0.15074"
         id="path1456"
         sodipodi:nodetypes="ccccccccc" /><path
         style="fill:none;fill-opacity:1;stroke:#2a00c1;stroke-width:2;stroke-dasharray:none;stroke-opacity:1"
         d="m 181.86494,220.83601 -0.94721,-170.769023 -28.68703,-0.135316 -15.63781,51.019009 8.70186,20.95245 15.05493,-40.848737 -0.27064,139.781617 z"
         id="path1773"
         sodipodi:nodetypes="cccccccc" /><rect
         style="fill:#2a00c1;fill-opacity:1;stroke:none;stroke-width:2.20885;stroke-dasharray:none;stroke-opacity:1"
         id="rect3471"
         width="22.875034"
         height="169.55026"
         x="24.201975"
         y="50.32925"
         ry="0" /><rect
         style="fill:#2a00c1;fill-opacity:1;stroke:none;stroke-width:2.22028;stroke-dasharray:none;stroke-opacity:1"
         id="rect3471-8"
         width="22.875034"
         height="171.30937"
         x="158.80235"
         y="49.729153"
         ry="0" /><path
         style="fill:#2a00c1;fill-opacity:1;stroke:none;stroke-width:2;stroke-dasharray:none;stroke-opacity:1"
         d="m 47.022374,51.318662 8.897038,-0.101489"
         id="path3589" /><path
         style="fill:#2a00c1;fill-opacity:1;stroke:none;stroke-width:2;stroke-dasharray:none;stroke-opacity:1"
         d="m 47.056201,51.217173 8.863211,0.06766 L 70.851621,97.301952 59.775923,121.31096 47.056202,78.246582 Z"
         id="path3593"
         sodipodi:nodetypes="cccccc" /><path
         style="fill:#2a00c1;fill-opacity:1;stroke:none;stroke-width:1.97667;stroke-dasharray:none;stroke-opacity:1"
         d="m 159.63396,50.601448 -6.93537,0.259026 -16.84496,49.627366 9.14505,22.69515 14.5396,-40.959349 z"
         id="path3593-1"
         sodipodi:nodetypes="cccccc" /><path
         style="fill:#c1002a;fill-opacity:1;stroke:none;stroke-width:2;stroke-dasharray:none;stroke-opacity:1"
         d="M 46.986139,220.08016 47.081822,162.37942 92.556268,51.014201 102.8403,50.608252 102.97561,68.064039 48.713825,220.43006 Z"
         id="path3794"
         sodipodi:nodetypes="ccccccc" /><path
         style="fill:#c1002a;fill-opacity:1;stroke:none;stroke-width:1.97193;stroke-dasharray:none;stroke-opacity:1"
         d="m 158.96983,219.47402 -0.093,-57.70074 -44.20679,-111.36522 -12.86784,0.742247 0.82529,17.073055 54.66283,151.600558 z"
         id="path3794-4"
         sodipodi:nodetypes="ccccccc" /><rect
         style="fill:#c1002a;fill-opacity:1;stroke:none;stroke-width:1.84242;stroke-dasharray:none;stroke-opacity:1"
         id="rect3908"
         width="103.72036"
         height="17.701351"
         x="51.668816"
         y="150.98776" /></g></g></svg>
